<mxfile host="app.diagrams.net" modified="2023-12-18T22:17:02.840Z" agent="Mozilla/5.0 (Windows NT 10.0; Win64; x64) AppleWebKit/537.36 (KHTML, like Gecko) Chrome/118.0.0.0 Safari/537.36 OPR/104.0.0.0" etag="AmstDkkVDE3xhO4ut1QT" version="22.1.11" type="github">
  <diagram name="Page-1" id="e7e014a7-5840-1c2e-5031-d8a46d1fe8dd">
    <mxGraphModel dx="987" dy="571" grid="1" gridSize="10" guides="1" tooltips="1" connect="1" arrows="1" fold="1" page="1" pageScale="1" pageWidth="1169" pageHeight="826" background="none" math="0" shadow="0">
      <root>
        <mxCell id="0" />
        <mxCell id="1" parent="0" />
        <mxCell id="2" value="usuario" style="swimlane;whiteSpace=wrap" parent="1" vertex="1">
          <mxGeometry x="164.5" y="128" width="280" height="570" as="geometry" />
        </mxCell>
        <mxCell id="z-WEhTvD3s7KnRMiJ6-K-43" style="edgeStyle=orthogonalEdgeStyle;rounded=0;orthogonalLoop=1;jettySize=auto;html=1;exitX=0.5;exitY=1;exitDx=0;exitDy=0;entryX=0.5;entryY=0;entryDx=0;entryDy=0;" edge="1" parent="2" source="5" target="z-WEhTvD3s7KnRMiJ6-K-42">
          <mxGeometry relative="1" as="geometry" />
        </mxCell>
        <mxCell id="5" value="" style="ellipse;shape=startState;fillColor=#000000;strokeColor=#000000;" parent="2" vertex="1">
          <mxGeometry x="125" y="40" width="30" height="30" as="geometry" />
        </mxCell>
        <mxCell id="z-WEhTvD3s7KnRMiJ6-K-49" style="edgeStyle=orthogonalEdgeStyle;rounded=0;orthogonalLoop=1;jettySize=auto;html=1;exitX=0.5;exitY=1;exitDx=0;exitDy=0;entryX=0.5;entryY=0;entryDx=0;entryDy=0;" edge="1" parent="2" source="z-WEhTvD3s7KnRMiJ6-K-42" target="z-WEhTvD3s7KnRMiJ6-K-48">
          <mxGeometry relative="1" as="geometry" />
        </mxCell>
        <mxCell id="z-WEhTvD3s7KnRMiJ6-K-42" value="pesquisa item" style="rounded=1;whiteSpace=wrap;html=1;" vertex="1" parent="2">
          <mxGeometry x="102.75" y="132" width="74.5" height="38" as="geometry" />
        </mxCell>
        <mxCell id="z-WEhTvD3s7KnRMiJ6-K-52" style="edgeStyle=orthogonalEdgeStyle;rounded=0;orthogonalLoop=1;jettySize=auto;html=1;exitX=0.5;exitY=1;exitDx=0;exitDy=0;entryX=0;entryY=0.5;entryDx=0;entryDy=0;" edge="1" parent="2" source="z-WEhTvD3s7KnRMiJ6-K-44" target="z-WEhTvD3s7KnRMiJ6-K-42">
          <mxGeometry relative="1" as="geometry">
            <Array as="points">
              <mxPoint x="140" y="320" />
              <mxPoint x="83" y="320" />
              <mxPoint x="83" y="151" />
            </Array>
          </mxGeometry>
        </mxCell>
        <mxCell id="z-WEhTvD3s7KnRMiJ6-K-44" value="" style="rhombus;whiteSpace=wrap;html=1;" vertex="1" parent="2">
          <mxGeometry x="126.93" y="272" width="26.13" height="28" as="geometry" />
        </mxCell>
        <mxCell id="z-WEhTvD3s7KnRMiJ6-K-50" style="edgeStyle=orthogonalEdgeStyle;rounded=0;orthogonalLoop=1;jettySize=auto;html=1;" edge="1" parent="2" source="z-WEhTvD3s7KnRMiJ6-K-48" target="z-WEhTvD3s7KnRMiJ6-K-44">
          <mxGeometry relative="1" as="geometry" />
        </mxCell>
        <mxCell id="z-WEhTvD3s7KnRMiJ6-K-48" value="adiciona ao carrinho" style="rounded=1;whiteSpace=wrap;html=1;" vertex="1" parent="2">
          <mxGeometry x="102.75" y="202" width="74.5" height="38" as="geometry" />
        </mxCell>
        <mxCell id="z-WEhTvD3s7KnRMiJ6-K-53" value="n satisfeito&lt;br&gt;" style="text;html=1;strokeColor=none;fillColor=none;align=center;verticalAlign=middle;whiteSpace=wrap;rounded=0;" vertex="1" parent="2">
          <mxGeometry x="85.5" y="300" width="60" height="30" as="geometry" />
        </mxCell>
        <mxCell id="z-WEhTvD3s7KnRMiJ6-K-63" value="" style="line;strokeWidth=2;html=1;" vertex="1" parent="2">
          <mxGeometry x="60" y="412" width="160" height="18" as="geometry" />
        </mxCell>
        <mxCell id="3" value="sistema" style="swimlane;whiteSpace=wrap" parent="1" vertex="1">
          <mxGeometry x="444" y="128" width="280" height="570" as="geometry" />
        </mxCell>
        <mxCell id="z-WEhTvD3s7KnRMiJ6-K-61" style="edgeStyle=orthogonalEdgeStyle;rounded=0;orthogonalLoop=1;jettySize=auto;html=1;" edge="1" parent="3" source="z-WEhTvD3s7KnRMiJ6-K-57" target="z-WEhTvD3s7KnRMiJ6-K-60">
          <mxGeometry relative="1" as="geometry" />
        </mxCell>
        <mxCell id="z-WEhTvD3s7KnRMiJ6-K-57" value="salva o carrinho&lt;br&gt;" style="rounded=1;whiteSpace=wrap;html=1;" vertex="1" parent="3">
          <mxGeometry x="35.5" y="132" width="74.5" height="38" as="geometry" />
        </mxCell>
        <mxCell id="z-WEhTvD3s7KnRMiJ6-K-60" value="processa a compra" style="rounded=1;whiteSpace=wrap;html=1;" vertex="1" parent="3">
          <mxGeometry x="85.5" y="242" width="74.5" height="38" as="geometry" />
        </mxCell>
        <mxCell id="z-WEhTvD3s7KnRMiJ6-K-64" style="edgeStyle=orthogonalEdgeStyle;rounded=0;orthogonalLoop=1;jettySize=auto;html=1;" edge="1" parent="3" target="z-WEhTvD3s7KnRMiJ6-K-63">
          <mxGeometry relative="1" as="geometry">
            <mxPoint x="85.49999999999977" y="262" as="sourcePoint" />
            <mxPoint x="-143.83999999999992" y="441.2270000000001" as="targetPoint" />
            <Array as="points">
              <mxPoint x="26" y="262" />
              <mxPoint x="26" y="352" />
              <mxPoint x="-139" y="352" />
            </Array>
          </mxGeometry>
        </mxCell>
        <mxCell id="4" value="adm" style="swimlane;whiteSpace=wrap;startSize=23;" parent="1" vertex="1">
          <mxGeometry x="724.5" y="128" width="280" height="570" as="geometry" />
        </mxCell>
        <mxCell id="z-WEhTvD3s7KnRMiJ6-K-58" style="edgeStyle=orthogonalEdgeStyle;rounded=0;orthogonalLoop=1;jettySize=auto;html=1;entryX=0;entryY=0.5;entryDx=0;entryDy=0;" edge="1" parent="1" source="z-WEhTvD3s7KnRMiJ6-K-44" target="z-WEhTvD3s7KnRMiJ6-K-57">
          <mxGeometry relative="1" as="geometry" />
        </mxCell>
      </root>
    </mxGraphModel>
  </diagram>
</mxfile>
